<?xml version="1.0" standalone="no"?>
<!DOCTYPE svg PUBLIC "-//W3C//DTD SVG 1.1//EN" "http://www.w3.org/Graphics/SVG/1.1/DTD/svg11.dtd" >
<svg xmlns="http://www.w3.org/2000/svg">
<metadata>Generated by IcoMoon</metadata>
<defs>
<font id="icomoon" horiz-adv-x="1024">
<font-face units-per-em="1024" ascent="960" descent="-64" />
<missing-glyph horiz-adv-x="1024" />
<glyph unicode="&#x20;" horiz-adv-x="512" d="" />
<glyph unicode="&#xe900;" glyph-name="account_circle_FILL0_wght400_GRAD0_opsz24" d="M249.6 230.4q54.4 41.6 121.6 65.621 67.2 23.979 140.8 23.979t140.8-23.979q67.2-24.021 121.6-65.621 37.333 43.733 58.155 99.2 20.779 55.467 20.779 118.4 0 141.867-99.712 241.621-99.755 99.712-241.621 99.712t-241.579-99.712q-99.755-99.755-99.755-241.621 0-62.933 20.821-118.4 20.779-55.467 58.112-99.2zM512 405.333q-62.933 0-106.155 43.179-43.179 43.221-43.179 106.155t43.179 106.155q43.221 43.179 106.155 43.179t106.155-43.179q43.179-43.221 43.179-106.155t-43.179-106.155q-43.221-43.179-106.155-43.179zM512 21.333q-88.533 0-166.4 33.621-77.867 33.579-135.467 91.179t-91.179 135.467q-33.621 77.867-33.621 166.4t33.621 166.4q33.579 77.867 91.179 135.467t135.467 91.221q77.867 33.579 166.4 33.579t166.4-33.579q77.867-33.621 135.467-91.221t91.179-135.467q33.621-77.867 33.621-166.4t-33.621-166.4q-33.579-77.867-91.179-135.467t-135.467-91.179q-77.867-33.621-166.4-33.621zM512 106.667q56.533 0 106.667 16.512 50.133 16.555 91.733 47.488-41.6 30.933-91.733 47.488-50.133 16.512-106.667 16.512t-106.667-16.512q-50.133-16.555-91.733-47.488 41.6-30.933 91.733-47.488 50.133-16.512 106.667-16.512zM512 490.667q27.733 0 45.867 18.133t18.133 45.867-18.133 45.867-45.867 18.133-45.867-18.133-18.133-45.867 18.133-45.867 45.867-18.133z" />
<glyph unicode="&#xe901;" glyph-name="arrow_drop_down_FILL1_wght400_GRAD0_opsz24" d="M512 320l-213.333 213.333h426.667z" />
<glyph unicode="&#xe902;" glyph-name="arrow_drop_up_FILL1_wght400_GRAD0_opsz24" d="M298.667 362.667l213.333 213.333 213.333-213.333z" />
<glyph unicode="&#xe903;" glyph-name="cancel_1" d="M361.574 243.2l150.426 150.426 150.426-150.426 54.374 54.374-150.426 150.426 150.426 150.426-54.374 54.374-150.426-150.426-150.426 150.426-54.374-54.374 150.426-150.426-150.426-150.426zM512 38.4q-84.275 0-158.925 32t-130.662 88.013-88.013 130.662-32 158.925q0 85.35 32 159.488 32 74.086 88.013 130.099t130.662 88.013 158.925 32q85.35 0 159.488-32 74.086-32 130.099-88.013t88.013-130.099q32-74.138 32-159.488 0-84.275-32-158.925t-88.013-130.662-130.099-88.013q-74.138-32-159.488-32zM512 115.2q138.65 0 235.725 97.075t97.075 235.725-97.075 235.725-235.725 97.075-235.725-97.075-97.075-235.725 97.075-235.725 235.725-97.075z" />
<glyph unicode="&#xe904;" glyph-name="cancel_2" d="M361.574 243.2l150.426 150.426 150.426-150.426 54.374 54.374-150.426 150.426 150.426 150.426-54.374 54.374-150.426-150.426-150.426 150.426-54.374-54.374 150.426-150.426-150.426-150.426zM512 38.4q-84.275 0-158.925 32t-130.662 88.013-88.013 130.662-32 158.925q0 85.35 32 159.488 32 74.086 88.013 130.099t130.662 88.013 158.925 32q85.35 0 159.488-32 74.086-32 130.099-88.013t88.013-130.099q32-74.138 32-159.488 0-84.275-32-158.925t-88.013-130.662-130.099-88.013q-74.138-32-159.488-32zM512 115.2q138.65 0 235.725 97.075t97.075 235.725-97.075 235.725-235.725 97.075-235.725-97.075-97.075-235.725 97.075-235.725 235.725-97.075z" />
<glyph unicode="&#xe905;" glyph-name="check_circle_FILL1_wght400_GRAD0_opsz48" d="M449.067 253.867l301.867 301.867-49.067 48-252.8-252.8-128 128-48-48zM512 21.333q-87.467 0-165.333 33.6t-136 91.733-91.733 136-33.6 165.333q0 88.533 33.6 166.4t91.733 135.467 136 91.2 165.333 33.6q88.533 0 166.4-33.6t135.467-91.2 91.2-135.467 33.6-166.4q0-87.467-33.6-165.333t-91.2-136-135.467-91.733-166.4-33.6z" />
<glyph unicode="&#xe906;" glyph-name="check_FILL1_wght400_GRAD0_opsz24" d="M407.467 192l-243.2 243.2 60.8 60.8 182.4-182.4 391.467 391.467 60.8-60.8z" />
<glyph unicode="&#xe907;" glyph-name="error_FILL1_wght400_GRAD0_opsz20" d="M512 243.2q15.974 0 27.187 11.213t11.213 27.187-11.213 27.187-27.187 11.213-27.187-11.213-11.213-27.187 11.213-27.187 27.187-11.213zM473.6 396.8h76.8v256h-76.8zM512 38.4q-84.275 0-158.925 32t-130.662 88.013-88.013 130.662-32 158.925q0 85.35 32 159.488 32 74.086 88.013 130.099t130.662 88.013 158.925 32q85.35 0 159.488-32 74.086-32 130.099-88.013t88.013-130.099q32-74.138 32-159.488 0-84.275-32-158.925t-88.013-130.662-130.099-88.013q-74.138-32-159.488-32z" />
<glyph unicode="&#xe908;" glyph-name="help_FILL1_wght400_GRAD0_opsz20" d="M512 192q21.35 0 36.25 14.95 14.95 14.899 14.95 36.25t-14.95 36.25q-14.899 14.95-36.25 14.95t-36.25-14.95q-14.95-14.899-14.95-36.25t14.95-36.25q14.899-14.95 36.25-14.95zM473.6 355.226h77.875q0 39.424 6.912 55.962 6.963 16.538 33.587 42.138 37.376 36.25 51.763 61.85t14.387 56.576q0 58.624-39.987 95.437t-101.888 36.813q-54.374 0-94.362-28.774-40.038-28.826-56.013-77.875l69.325-28.826q9.626 29.901 30.413 46.387 20.787 16.538 48.538 16.538 29.85 0 49.050-17.050t19.2-44.8q0-24.525-16.538-43.725t-36.813-37.325q-37.325-34.15-46.387-56.013t-9.062-77.312zM512 38.4q-84.275 0-158.925 32t-130.662 88.013-88.013 130.662-32 158.925q0 85.35 32 159.488 32 74.086 88.013 130.099t130.662 88.013 158.925 32q85.35 0 159.488-32 74.086-32 130.099-88.013t88.013-130.099q32-74.138 32-159.488 0-84.275-32-158.925t-88.013-130.662-130.099-88.013q-74.138-32-159.488-32z" />
<glyph unicode="&#xe909;" glyph-name="hourglass_top_FILL0_wght400_GRAD0_opsz20" d="M345.6 115.2h332.8v128q0 69.325-48.538 117.862t-117.862 48.538-117.862-48.538-48.538-117.862zM204.8 38.4v76.8h64v128q0 62.925 29.85 116.787 29.901 53.862 83.2 88.013-52.224 34.15-82.637 88.013t-30.413 116.787v128h-64v76.8h614.4v-76.8h-64v-128q0-62.925-30.413-116.787t-82.637-88.013q53.299-34.15 83.2-88.013 29.85-53.862 29.85-116.787v-128h64v-76.8z" />
<glyph unicode="&#xe90a;" glyph-name="icons8-bookmark1" d="M256.5 874.667c-46.833 0-85.333-38.5-85.333-85.333l-0.5-768 341.333 128 341.333-128v768c0 46.667-38.667 85.333-85.333 85.333zM256.5 789.333h511.5v-644.833l-256 96-255.833-96z" />
<glyph unicode="&#xe90b;" glyph-name="keyboard_arrow_right_FILL1_wght400_GRAD0_opsz24" d="M401.067 192l-59.733 59.733 196.267 196.267-196.267 196.267 59.733 59.733 256-256z" />
<glyph unicode="&#xe90c;" glyph-name="menu_FILL0_wght400_GRAD0_opsz24" d="M128 192v85.333h768v-85.333zM128 405.333v85.333h768v-85.333zM128 618.667v85.333h768v-85.333z" />
<glyph unicode="&#xe90d;" d="M1024 448c0-282.77-229.23-512-512-512s-512 229.23-512 512c0 282.77 229.23 512 512 512s512-229.23 512-512z" />
<glyph unicode="&#xe90e;" glyph-name="icons8-search" d="M384 874.667c-164.5 0-298.667-134.167-298.667-298.667s134.167-298.667 298.667-298.667c74.5 0 142.667 27.833 195.167 73.333l18.167-18.167v-55.167l256-256 85.333 85.333-256 256h-55.167l-18.167 18.167c45.5 52.5 73.333 120.667 73.333 195.167 0 164.5-134.167 298.667-298.667 298.667zM384 789.333c118.333 0 213.333-95 213.333-213.333s-95-213.333-213.333-213.333c-118.333 0-213.333 95-213.333 213.333s95 213.333 213.333 213.333z" />
<glyph unicode="&#xe90f;" d="M175.002 831.13l703.767-719.117-46.124-47.137-703.695 719.19z" />
<glyph unicode="&#xe910;" d="M895.078 783.974l-703.658-719.009-46.16 47.174 703.658 719.009z" />
<glyph unicode="&#xe911;" d="M45.568 677.069l695.476-695.476-45.581-45.581-695.476 695.476 45.581 45.581z" />
<glyph unicode="&#xe912;" d="M328.499 960l695.476-695.476-45.581-45.581-695.476 695.476 45.581 45.581z" />
<glyph unicode="&#xe913;" d="M757.248 914.432l-695.331-695.331-45.581 45.581 695.331 695.331z" />
<glyph unicode="&#xe914;" d="M1024 631.501l-695.331-695.331-45.581 45.581 695.331 695.331 45.581-45.581z" />
<glyph unicode="&#xe915;" d="M562.649 707.584c-2.53 0.2-5.478 0.313-8.453 0.313-63.079 0-114.215-51.136-114.215-114.215 0-4.036 0.209-8.023 0.618-11.95l-0.041 0.491v-69.986h-81.92v-94.917h81.92v-243.358h97.95v243.358h81.723l12.288 94.917h-93.972v60.574c0 27.569 7.641 46.198 47.025 46.198h50.215v84.834c-21.238 2.385-45.86 3.746-70.799 3.746-0.836 0-1.671-0.002-2.506-0.005h0.128z" />
<glyph unicode="&#xe916;" d="M512 960c282.77 0 512-229.23 512-512s-229.23-512-512-512c-282.77 0-512 229.23-512 512v0c0 282.77 229.23 512 512 512v0z" />
<glyph unicode="&#xe917;" d="M748.308 723.692c0.028 0 0.062 0 0.096 0 10.81 0 20.561-4.532 27.458-11.799l0.016-0.017c7.284-6.912 11.816-16.664 11.816-27.474 0-0.034 0-0.067 0-0.101v0.005-472.615c0-0.028 0-0.062 0-0.096 0-10.81-4.532-20.561-11.799-27.458l-0.017-0.016c-6.912-7.284-16.664-11.816-27.474-11.816-0.034 0-0.067 0-0.101 0h-472.61c-0.028 0-0.062 0-0.096 0-10.81 0-20.561 4.532-27.458 11.799l-0.016 0.017c-7.284 6.912-11.816 16.664-11.816 27.474 0 0.034 0 0.067 0 0.101v-0.005 472.615c0 0.028 0 0.062 0 0.096 0 10.81 4.532 20.561 11.799 27.458l0.017 0.016c6.912 7.284 16.664 11.816 27.474 11.816 0.034 0 0.067 0 0.101 0h-0.005zM402.471 251.077h1.221v263.365h-82.471v-263.365zM361.826 550.164c0.168-0.002 0.366-0.003 0.564-0.003 13.059 0 24.852 5.418 33.254 14.129l0.013 0.014c8.742 8.306 14.18 20.018 14.18 33 0 0.126-0.001 0.252-0.002 0.378v-0.019c0.001 0.083 0.001 0.181 0.001 0.279 0 12.962-5.422 24.659-14.121 32.944l-0.019 0.018c-8.406 8.655-20.153 14.026-33.155 14.026-0.252 0-0.503-0.002-0.754-0.006h0.038c-0.248 0.005-0.541 0.008-0.834 0.008-12.79 0-24.312-5.434-32.381-14.119l-0.025-0.028c-8.35-8.406-13.51-19.988-13.51-32.776 0-0.122 0-0.243 0.001-0.365v0.019c-0.001-0.126-0.002-0.275-0.002-0.424 0-12.808 5.177-24.407 13.552-32.818l-0.002 0.002c8.102-8.781 19.667-14.263 32.513-14.263 0.242 0 0.484 0.002 0.725 0.006h-0.036zM708.923 251.077v143.99c0.273 3.701 0.428 8.017 0.428 12.37 0 28.169-6.509 54.817-18.106 78.523l0.467-1.057c-16.26 22.004-42.107 36.116-71.25 36.116-3.078 0-6.119-0.157-9.116-0.465l0.376 0.031c-0.504 0.010-1.098 0.015-1.693 0.015-18.023 0-34.87-5.029-49.217-13.761l0.419 0.237c-11.594-6.717-20.833-16.361-26.877-27.937l-0.181-0.38h-1.26v35.682h-78.769v-263.365h81.25v130.442c-0.102 1.698-0.16 3.683-0.16 5.681 0 14.886 3.221 29.019 9.003 41.741l-0.258-0.633c7.707 12.697 21.458 21.051 37.159 21.051 1.213 0 2.414-0.050 3.602-0.148l-0.156 0.010c1.051 0.111 2.272 0.174 3.507 0.174 15.318 0 28.366-9.716 33.318-23.322l0.078-0.246c4.026-12.004 6.348-25.827 6.348-40.192 0-2.307-0.060-4.599-0.178-6.876l0.013 0.319v-128z" />
<glyph unicode="&#xe918;" horiz-adv-x="1365" d="M0 960h1365.333v-512h-1365.333z" />
<glyph unicode="&#xe919;" horiz-adv-x="1365" d="M0 448h1365.333v-512h-1365.333z" />
<glyph unicode="&#xe91a;" horiz-adv-x="1365" d="M0 960h1365.333v-1024h-1365.333z" />
<glyph unicode="&#xe91b;" horiz-adv-x="1365" d="M0 613.333h1365.333v-341.333h-1365.333z" />
<glyph unicode="&#xe91c;" horiz-adv-x="1365" d="M0 960h1365.333v-176h-1365.333zM0 106.667h1365.333v-170.667h-1365.333z" />
<glyph unicode="&#xe91d;" horiz-adv-x="1365" d="M0 960h1945.6v-78.933h-1945.6zM0 802.347h1945.6v-78.933h-1945.6zM0 644.907h1945.6v-78.933h-1945.6zM0 487.467h1945.6v-78.933h-1945.6zM0 329.6h1945.6v-78.507h-1945.6zM0 172.373h1945.6v-78.933h-1945.6zM0 14.933h1945.6v-78.933h-1945.6z" />
<glyph unicode="&#xe91e;" horiz-adv-x="1365" d="M0 881.067h1945.6v-78.72h-1945.6zM0 723.627h1945.6v-78.72h-1945.6zM0 566.187h1945.6v-78.933h-1945.6zM0 408.533h1945.6v-78.933h-1945.6zM0 251.093h1945.6v-78.933h-1945.6zM0 93.653h1945.6v-78.933h-1945.6z" />
<glyph unicode="&#xe91f;" horiz-adv-x="1365" d="M0 960h778.24v-551.467h-778.24z" />
<glyph unicode="&#xe920;" horiz-adv-x="1365" d="M64.853 936.533l7.253-21.973h22.613l-18.347-13.44 7.040-21.973-18.56 13.653-18.347-13.44 6.827 21.76-18.56 13.44h23.253zM194.56 936.533l7.040-21.973h23.040l-18.56-13.44 6.827-21.973-18.347 13.653-18.56-13.44 7.040 21.76-18.347 13.44h22.613zM324.267 936.533l7.040-21.973h22.827l-18.347-13.44 7.040-21.973-18.56 13.653-18.56-13.44 7.040 21.76-18.56 13.44h23.040zM453.973 936.533l7.040-21.973h23.040l-18.56-13.44 7.040-21.973-18.56 13.653-18.56-13.44 7.253 21.76-18.773 13.44h22.827zM583.68 936.533l7.040-21.973h22.827l-18.347-13.44 7.040-21.973-18.56 13.653-18.56-13.44 7.040 21.76-18.347 13.44h22.827zM713.387 936.533l7.040-21.973h23.040l-18.773-13.44 7.253-21.973-18.56 13.653-18.56-13.44 7.253 21.76-18.773 13.44h23.040zM129.707 881.067l7.040-21.76h23.253l-18.56-13.227 6.827-21.973-18.133 13.44-18.56-13.44 6.613 21.973-17.92 13.227h22.827zM259.413 881.067l7.253-21.76h22.827l-18.773-13.227 7.253-21.973-18.56 13.44-18.56-13.44 7.040 21.973-18.56 13.227h23.040zM389.12 881.067l7.040-21.76h23.040l-18.56-13.227 7.040-21.973-18.56 13.44-18.56-13.44 7.040 21.973-18.347 13.227h22.613zM518.827 881.067l7.253-21.76h22.827l-18.773-13.227 7.253-21.973-18.56 13.44-18.347-13.44 6.827 21.973-18.56 13.227h23.253zM648.533 881.067l7.040-21.76h23.040l-18.56-13.227 7.040-21.973-18.56 13.44-18.56-13.44 7.040 21.973-18.347 13.227h22.827zM64.853 826.453l7.253-22.187h22.613l-18.347-13.44 7.040-21.76-18.56 13.44-18.347-13.44 6.827 21.76-18.56 13.44h23.253zM194.56 826.453l7.040-22.187h23.040l-18.56-13.44 6.827-21.76-18.347 13.44-18.56-13.44 7.040 21.973-18.347 13.44h22.613zM324.267 826.453l7.040-21.973h22.827l-18.347-13.44 7.040-21.76-18.56 13.44-18.56-13.44 7.040 21.973-18.56 13.44h23.040zM453.973 826.453l7.040-21.973h23.040l-18.56-13.44 7.040-21.76-18.56 13.44-18.56-13.44 7.253 21.973-18.773 13.44h22.827zM583.68 826.453l7.040-21.973h22.827l-18.347-13.44 7.040-21.76-18.56 13.44-18.56-13.44 7.040 21.973-18.347 13.44h22.827zM713.387 826.453l7.040-21.973h23.040l-18.773-13.44 7.253-21.76-18.56 13.44-18.56-13.44 7.253 21.973-18.773 13.44h23.040zM129.707 770.987l7.040-21.76h23.253l-18.56-13.44 7.040-21.973-18.56 13.653-18.56-13.44 7.040 21.76-18.347 13.44h22.827zM259.413 770.987l7.253-21.76h22.827l-18.773-13.44 7.253-21.973-18.56 13.653-18.56-13.44 7.040 21.76-18.56 13.44h23.040zM389.12 770.987l7.040-21.76h23.040l-18.56-13.44 7.040-21.973-18.56 13.653-18.56-13.44 7.040 21.76-18.347 13.44h22.613zM518.827 770.987l7.253-21.76h22.827l-18.56-13.44 7.040-21.973-18.56 13.653-18.347-13.44 6.827 21.76-18.56 13.44h23.253zM648.533 770.987l7.040-21.76h23.040l-18.56-13.44 7.040-21.973-18.56 13.653-18.56-13.44 7.040 21.76-18.347 13.44h22.827zM64.853 715.733l7.253-21.76h22.613l-18.347-13.44 7.040-21.973-18.56 13.653-18.347-13.44 6.827 21.76-18.56 13.44h23.253zM194.56 715.733l7.040-21.76h23.040l-18.56-13.44 6.827-21.76-18.347 13.44-18.56-13.44 7.040 21.76-18.347 13.44h22.613zM324.267 715.733l7.040-21.76h22.827l-18.347-13.44 7.040-21.973-18.56 13.653-18.56-13.44 7.040 21.76-18.56 13.44h23.040zM453.973 715.733l7.040-21.76h23.040l-18.56-13.44 7.040-21.973-18.56 13.653-18.56-13.44 7.253 21.76-18.773 13.44h22.827zM583.68 715.733l7.040-21.76h22.827l-18.347-13.44 7.040-21.973-18.56 13.653-18.56-13.44 7.040 21.76-18.347 13.44h22.827zM713.387 715.733l7.040-21.76h23.040l-18.773-13.44 7.253-21.973-18.56 13.653-18.56-13.44 7.040 21.76-18.773 13.44h23.040zM129.707 660.693l7.040-21.973h23.253l-18.56-13.227 7.040-21.973-18.56 13.653-18.56-13.653 7.040 21.973-18.347 13.44h22.827zM259.413 660.693l7.253-21.973h22.827l-18.773-13.227 7.253-21.973-18.56 13.653-18.56-13.653 7.040 21.973-18.56 13.44h23.040zM389.12 660.693l7.040-21.973h23.040l-18.56-13.227 7.040-21.973-18.56 13.653-18.56-13.653 7.040 21.973-18.347 13.44h22.613zM518.827 660.693l7.253-21.973h22.827l-18.56-13.227 7.040-21.973-18.56 13.653-18.347-13.653 6.827 21.973-18.56 13.44h23.253zM648.533 660.693l7.040-21.973h23.040l-18.56-13.227 7.040-21.973-18.56 13.653-18.56-13.653 7.040 21.973-18.347 13.44h22.827zM64.853 605.653l7.253-21.973h22.613l-18.347-13.44 7.040-21.547-18.56 13.227-18.347-13.227 6.827 21.76-18.56 13.44h23.253zM194.56 605.653l7.040-21.973h23.040l-18.56-13.44 7.040-21.547-18.56 13.227-18.56-13.227 7.253 21.76-18.56 13.44h22.613zM324.267 605.653l7.040-21.973h22.827l-18.347-13.44 7.040-21.547-18.56 13.227-18.56-13.227 7.040 21.76-18.56 13.44h23.040zM453.973 605.653l7.040-21.973h23.040l-18.56-13.44 7.040-21.547-18.56 13.227-18.56-13.227 7.253 21.76-18.773 13.44h22.827zM583.68 605.653l7.040-21.973h22.827l-18.347-13.44 7.040-21.547-18.56 13.227-18.56-13.227 7.040 21.76-18.347 13.44h22.827zM713.387 605.653l7.040-21.973h23.040l-18.773-13.44 7.253-21.547-18.56 13.227-18.56-13.227 7.253 21.76-18.773 13.44h23.040zM129.707 550.4l7.040-21.76h23.253l-18.56-13.44 7.040-21.973-18.56 13.653-18.56-13.44 7.040 21.76-18.347 13.44h22.827zM259.413 550.4l7.253-21.76h22.827l-18.773-13.44 7.253-21.973-18.56 13.653-18.56-13.44 7.040 21.76-18.56 13.44h23.040zM389.12 550.4l7.040-21.76h23.040l-18.56-13.44 7.040-21.973-18.56 13.653-18.56-13.44 7.040 21.76-18.347 13.44h22.613zM518.827 550.4l7.253-21.76h22.827l-18.56-13.44 7.040-21.973-18.56 13.653-18.347-13.44 6.827 21.76-18.56 13.44h23.253zM648.533 550.4l7.040-21.76h23.040l-18.56-13.44 7.040-21.973-18.56 13.653-18.56-13.44 7.040 21.76-18.347 13.44h22.827zM64.853 495.147l7.253-21.76h22.613l-18.347-13.44 7.040-21.76-18.56 13.44-18.347-13.44 6.827 21.973-18.56 13.44h23.253zM194.56 495.147l7.040-21.76h23.040l-18.56-13.44 7.040-21.76-18.56 13.44-18.56-13.44 7.253 21.973-18.56 13.44h22.613zM324.267 495.147l7.040-21.76h22.827l-17.92-13.44 7.040-21.76-18.56 13.44-18.56-13.44 7.040 21.973-18.56 13.44h23.040zM453.973 495.147l7.040-21.76h23.040l-18.56-13.44 7.040-21.76-18.56 13.44-18.56-13.44 7.253 21.973-18.773 13.44h22.827zM583.68 495.147l7.040-21.76h22.827l-18.347-13.44 7.040-21.76-18.56 13.44-18.56-13.44 7.040 21.973-18.347 13.44h22.827zM713.387 495.147l7.040-21.76h23.040l-18.773-13.44 7.253-21.76-18.56 13.44-18.56-13.44 7.253 21.973-18.773 13.44h23.040z" />
<glyph unicode="&#xe921;" horiz-adv-x="1365" d="M-85.333 960h1536v-1024h-1536z" />
<glyph unicode="&#xe922;" horiz-adv-x="1365" d="M869.867 198l-179.2 133.4-178-134.6 66 219.2-178 135.4 220.2 2 68.4 218.8 69.4-218.2 220.2-0.2-177-136.8 67.8-219.2z" />
<glyph unicode="&#xe923;" glyph-name="Path-5057" d="M1024 850.321c0 60.6-49.126 109.726-109.726 109.726v0h-804.548c-60.6 0-109.726-49.126-109.726-109.726v0-804.595c0.027-60.58 49.142-109.679 109.726-109.679h450.045v404.778h-139.17v154.478h138.983v114.033c-0.587 5.551-0.922 11.991-0.922 18.51 0 102.896 83.414 186.309 186.309 186.309 4.739 0 9.437-0.177 14.087-0.525l-0.62 0.037c0.847 0.002 1.85 0.004 2.854 0.004 41.027 0 81.529-2.246 121.39-6.621l-4.922 0.439v-138.047h-81.873c-64.225 0-76.583-30.381-76.583-75.179v-98.725h158.41l-19.895-154.478h-138.468v-405.012h194.97c60.563 0.027 109.652 49.116 109.679 109.676v0.003z" />
<glyph unicode="&#xe924;" glyph-name="icons8-facebook-2" d="M838.72 777.488c-87.536 86.8-203.456 134.512-326.64 134.512-0.672 0-1.36 0-2.032 0-123.936-0.528-240.272-49.28-327.536-137.296s-135.040-204.736-134.512-328.672c0.528-123.936 49.28-240.256 137.28-327.52 87.536-86.8 203.456-134.512 326.64-134.512 0.672 0 1.36 0 2.032 0 123.936 0.528 240.272 49.28 327.536 137.296s135.040 204.736 134.512 328.672c-0.528 123.936-49.28 240.256-137.28 327.52zM513.824 16c-20.8-0.064-41.36 1.376-61.616 4.176v321.808h-98.976v105.152h98.976v69.968c0 115.84 56.432 166.688 152.704 166.688 46.112 0 70.48-3.424 82.032-4.976v-91.776h-65.664c-40.864 0-55.136-38.752-55.136-82.432v-57.472h119.776l-16.256-105.152h-103.52v-322.512c-17.232-2.144-34.672-3.392-52.32-3.472zM818.768 143.824c-61.072-61.6-137.44-102.528-220.624-119.264v285.424h71.52c15.792 0 29.216 11.504 31.632 27.104l16 103.488c0.448 2.112 0.672 4.304 0.672 6.544 0 17.68-14.288 32-31.952 32h-87.856v25.472c0 18.832 3.008 50.432 23.136 50.432h65.664c17.68 0 32 14.32 32 32v91.776c0 16.016-11.84 29.568-27.728 31.712-13.12 1.776-38.96 5.264-86.304 5.264-119.104 0-184.704-70.56-184.704-198.688v-37.968h-66.976c-17.68 0-32-14.32-32-32v-105.152c0-17.68 14.32-32 32-32h66.976v-284.096c-79.712 17.184-153.088 56.544-212.384 115.344-81.968 81.264-127.36 189.568-127.84 304.96s43.984 224.064 125.232 306c81.248 81.936 189.552 127.328 304.944 127.824 0.64 0 1.264 0 1.904 0 114.672 0 222.608-44.432 304.096-125.232 81.952-81.248 127.344-189.552 127.824-304.944s-43.984-224.064-125.232-306zM845.344 257.376c-0.016-0.016-0.032-0.048-0.032-0.048-4.416-7.632-14.144-10.272-21.808-5.888l-27.776 15.872c-7.664 4.384-10.336 14.16-5.952 21.824 0.016 0.032 0.032 0.048 0.048 0.064 4.416 7.632 14.144 10.272 21.808 5.888l27.776-15.872c7.664-4.4 10.336-14.16 5.936-21.84zM880.944 344.352c-0.368-1.408-0.912-2.72-1.616-3.952-3.52-6.096-10.784-9.344-17.92-7.456l-30.944 8.16c-8.56 2.24-13.632 10.992-11.392 19.552 2.272 8.48 10.992 13.648 19.552 11.392l30.928-8.144c8.544-2.24 13.632-10.992 11.392-19.552zM719.904 146.928c2.992-5.12 2.784-11.264 0.016-16.064-1.344-2.336-3.312-4.352-5.792-5.808-7.648-4.432-17.44-1.856-21.888 5.76l-16.112 27.648c-4.448 7.632-1.872 17.424 5.76 21.872 7.632 4.464 17.44 1.888 21.904-5.776l16.112-27.632zM892.848 437.568c0-2.944-0.768-5.696-2.144-8.064-2.752-4.768-7.888-7.968-13.808-8l-32-0.128c-8.832-0.032-16.032 7.088-16.064 15.92-0.048 8.88 7.072 16.032 15.936 16.080l32.016 0.112c8.848 0.032 16.032-7.088 16.064-15.92zM788.352 205.184c5.28-5.232 6.144-13.232 2.608-19.36-0.688-1.184-1.536-2.272-2.512-3.28-6.224-6.272-16.352-6.32-22.624-0.080l-22.72 22.544c-6.288 6.24-6.192 16.448-0.080 22.624 6.224 6.272 16.352 6.304 22.624 0.080l22.704-22.528zM434.56 806.192c1.456-6.080-0.784-12.224-5.28-16-1.84-1.552-4.032-2.704-6.528-3.296-11.904-2.864-23.712-6.4-35.136-10.528-8.336-2.992-17.504 1.312-20.48 9.616-3.008 8.32 1.328 17.488 9.616 20.48 12.544 4.512 25.488 8.4 38.496 11.52 8.608 2.080 17.248-3.2 19.312-11.792zM333.12 769.68c4.576-7.552 2.24-17.264-5.408-21.984-65.472-39.696-115.872-100.96-141.888-172.544-0.992-2.736-2.64-5.024-4.72-6.768-4.24-3.568-10.208-4.848-15.744-2.816-8.32 3.008-12.592 12.192-9.584 20.512 28.48 78.416 83.632 145.536 155.36 189.008 7.568 4.56 17.424 2.144 21.984-5.408z" />
<glyph unicode="&#xe925;" d="M512 853.333c-223.859 0-405.333-181.474-405.333-405.333s181.474-405.333 405.333-405.333v0c223.859 0 405.333 181.474 405.333 405.333s-181.474 405.333-405.333 405.333v0z" />
<glyph unicode="&#xe926;" d="M566.869 340.565h104.896l16.469 106.56h-121.387v58.24c0 44.267 14.464 83.52 55.872 83.52h66.539v92.992c-11.691 1.579-36.416 5.035-83.136 5.035-97.557 0-154.752-51.52-154.752-168.896v-70.891h-100.288v-106.56h100.288v-292.885c19.861-2.987 39.979-5.013 60.629-5.013 18.667 0 36.885 1.707 54.869 4.139v293.76z" />
<glyph unicode="&#xe927;" glyph-name="check_circle_FILL0_wght400_GRAD0_opsz20" d="M457.626 294.4l253.85 252.826-54.426 54.374-199.424-198.4-90.675 89.6-54.426-54.426zM512 38.4q-84.275 0-158.925 32t-130.662 88.013-88.013 130.662-32 158.925q0 85.35 32 159.488 32 74.086 88.013 130.099t130.662 88.013 158.925 32q85.35 0 159.488-32 74.086-32 130.099-88.013t88.013-130.099q32-74.138 32-159.488 0-84.275-32-158.925t-88.013-130.662-130.099-88.013q-74.138-32-159.488-32zM512 115.2q138.65 0 235.725 97.075t97.075 235.725-97.075 235.725-235.725 97.075-235.725-97.075-97.075-235.725 97.075-235.725 235.725-97.075z" />
<glyph unicode="&#xe928;" glyph-name="verified_FILL1_wght400_GRAD0_opsz20" d="M370.125 12.8l-79.974 132.25-150.426 34.15 13.875 153.6-102.4 115.2 102.4 115.2-13.875 153.6 150.426 34.15 79.974 132.25 141.875-60.826 141.875 60.826 79.974-132.25 150.426-34.15-13.875-153.6 102.4-115.2-102.4-115.2 13.875-153.6-150.426-34.15-79.974-132.25-141.875 60.826zM457.626 294.4l253.85 252.826-54.426 54.374-199.424-198.4-90.675 89.6-54.426-54.426z" />
<glyph unicode="&#xe929;" glyph-name="cancel_FILL1_wght400_GRAD0_opsz24" d="M358.4 234.667l153.6 153.6 153.6-153.6 59.733 59.733-153.6 153.6 153.6 153.6-59.733 59.733-153.6-153.6-153.6 153.6-59.733-59.733 153.6-153.6-153.6-153.6zM512 21.333q-88.533 0-166.4 33.621-77.867 33.579-135.467 91.179t-91.179 135.467q-33.621 77.867-33.621 166.4t33.621 166.4q33.579 77.867 91.179 135.467t135.467 91.221q77.867 33.579 166.4 33.579t166.4-33.579q77.867-33.621 135.467-91.221t91.179-135.467q33.621-77.867 33.621-166.4t-33.621-166.4q-33.579-77.867-91.179-135.467t-135.467-91.179q-77.867-33.621-166.4-33.621z" />
</font>
</defs>
</svg>
